P3
3 4
255
# begin pixel data
242 210 189
  89 22   105
  0   0 25
#row 0
255 255   0 
255 255 255
  0   0   0
#row 1
255 255 255
255 255 255
255 255 255
#row 2
242 210 189
  89 22   105
  0   0 25
